<svg width="10" height="10" viewBox="0 0 15 15" fill="none" xmlns="http://www.w3.org/2000/svg">
<path d="M14.9519 6.63595C14.92 6.55969 14.8744 6.49032 14.8163 6.43219L12.9419 4.55781C12.6975 4.31406 12.3025 4.31406 12.0581 4.55781C11.8138 4.80218 11.8138 5.1978 12.0581 5.44155L12.8663 6.24967H9.37499C9.02937 6.24967 8.75 6.52966 8.75 6.87466C8.75 7.21966 9.02937 7.49965 9.37499 7.49965H12.8662L12.0581 8.30778C11.8137 8.55214 11.8137 8.94777 12.0581 9.19152C12.18 9.31401 12.34 9.37465 12.5 9.37465C12.66 9.37465 12.82 9.31403 12.9419 9.19152L14.8163 7.31713C14.8744 7.25962 14.92 7.19025 14.9519 7.11337C15.015 6.96094 15.015 6.78844 14.9519 6.63595Z" fill="#B07E09"/>
<path d="M10.625 8.74999C10.2793 8.74999 9.99997 9.02998 9.99997 9.37498V12.5H7.49999V2.49999C7.49999 2.22436 7.31873 1.98061 7.05435 1.90125L4.88372 1.25001H9.99997V4.37501C9.99997 4.72001 10.2793 5 10.625 5C10.9706 5 11.2499 4.72001 11.2499 4.37501V0.625018C11.2499 0.27999 10.9706 0 10.625 0H0.624989C0.602489 0 0.582479 0.00937498 0.560624 0.0118652C0.531239 0.015 0.504374 0.0199804 0.476249 0.0268652C0.410624 0.0437401 0.35124 0.0693749 0.295634 0.104355C0.281894 0.113115 0.265019 0.11373 0.251894 0.12372C0.246855 0.1275 0.24498 0.134385 0.23997 0.138135C0.171855 0.191865 0.11499 0.25749 0.0737401 0.335624C0.0649803 0.352499 0.0631053 0.370634 0.0562499 0.388124C0.0362402 0.435614 0.0143847 0.481874 0.00688475 0.534374C0.00374999 0.553124 0.00937498 0.570614 0.00875975 0.588749C0.00814451 0.601259 0 0.612509 0 0.624989V13.125C0 13.4231 0.210615 13.6794 0.502499 13.7375L6.75248 14.9875C6.79311 14.9963 6.83436 15 6.87497 15C7.01808 15 7.15871 14.9506 7.27121 14.8581C7.41558 14.7394 7.49996 14.5625 7.49996 14.375V13.75H10.625C10.9706 13.75 11.2499 13.47 11.2499 13.125V9.37498C11.2499 9.02998 10.9706 8.74999 10.625 8.74999Z" fill="#B07E09"/>
</svg>
