<svg width="10" height="10" viewBox="0 0 15 15" fill="none" xmlns="http://www.w3.org/2000/svg">
<path d="M12.3322 5.27002C12.3322 5.28106 12.3339 5.29179 12.3339 5.30286C12.3339 8.69532 9.37707 11.4552 5.74215 11.4552H3.87207C4.65459 13.5263 6.76815 15.0001 9.25777 15.0001H14.5605C14.7412 15.0001 14.9034 14.8894 14.9695 14.7212C15.0356 14.553 14.9918 14.3616 14.8592 14.2384L13.6571 13.1235C14.5266 12.1737 15 10.9544 15 9.69739C15 7.87639 13.943 6.22501 12.3322 5.27002Z" fill="#B07E09"/>
<path d="M0.140771 9.81442C0.00817382 9.93759 -0.035625 10.129 0.0304687 10.2972C0.0965625 10.4654 0.258779 10.5762 0.439453 10.5762H5.74219C8.89219 10.5762 11.4551 8.21068 11.4551 5.30273C11.4551 2.39479 8.89219 0 5.74219 0C2.59219 0 0 2.39479 0 5.30273C0 6.55972 0.47335 7.74976 1.34282 8.69947L0.140771 9.81442ZM3.10547 2.66602H8.37891C8.62181 2.66602 8.81836 2.86257 8.81836 3.10547C8.81836 3.34837 8.62181 3.54492 8.37891 3.54492H3.10547C2.86257 3.54492 2.66602 3.34837 2.66602 3.10547C2.66602 2.86257 2.86257 2.66602 3.10547 2.66602ZM3.10547 4.42383H8.37891C8.62181 4.42383 8.81836 4.62038 8.81836 4.86328C8.81836 5.10618 8.62181 5.30273 8.37891 5.30273H3.10547C2.86257 5.30273 2.66602 5.10618 2.66602 4.86328C2.66602 4.62038 2.86257 4.42383 3.10547 4.42383ZM3.10547 6.18164H8.37891C8.62181 6.18164 8.81836 6.37819 8.81836 6.62109C8.81836 6.86399 8.62181 7.06055 8.37891 7.06055H3.10547C2.86257 7.06055 2.66602 6.86399 2.66602 6.62109C2.66602 6.37819 2.86257 6.18164 3.10547 6.18164Z" fill="#B07E09"/>
</svg>
