<svg width="10" height="10" viewBox="0 0 13 15" fill="none" xmlns="http://www.w3.org/2000/svg">
<path d="M6.25 7.5C7.28033 7.5 8.17251 7.13045 8.90149 6.40134C9.63046 5.67234 10 4.78036 10 3.74988C10 2.71976 9.63046 1.82766 8.90137 1.09843C8.17228 0.369548 7.28021 0 6.25 0C5.21955 0 4.32761 0.369548 3.59863 1.09855C2.86965 1.82754 2.5 2.71964 2.5 3.74988C2.5 4.78036 2.86965 5.67246 3.59875 6.40145C4.32784 7.13033 5.21991 7.5 6.25 7.5Z" fill="#B07E09"/>
<path d="M12.4697 11.6479C12.4495 11.3652 12.4086 11.0569 12.3483 10.7312C12.2875 10.4032 12.2092 10.093 12.1155 9.80955C12.0187 9.51657 11.887 9.22724 11.7242 8.94997C11.5552 8.66219 11.3568 8.4116 11.1341 8.20539C10.9013 7.98967 10.6162 7.81623 10.2865 7.68971C9.95803 7.56387 9.59396 7.50011 9.20451 7.50011C9.05157 7.50011 8.90365 7.56088 8.618 7.74096C8.44219 7.85198 8.23655 7.98037 8.00702 8.12238C7.81076 8.24347 7.54488 8.35692 7.21647 8.45964C6.89607 8.56003 6.57075 8.61094 6.24966 8.61094C5.92857 8.61094 5.60336 8.56003 5.28261 8.45964C4.95455 8.35703 4.68867 8.24358 4.49263 8.12249C4.26528 7.98181 4.05952 7.85342 3.88109 7.74085C3.59578 7.56077 3.44775 7.5 3.2948 7.5C2.90524 7.5 2.54129 7.56387 2.21288 7.68982C1.88345 7.81612 1.59825 7.98956 1.36518 8.2055C1.14262 8.41182 0.944067 8.6623 0.775349 8.94997C0.612689 9.22724 0.481007 9.51646 0.384074 9.80966C0.290456 10.0931 0.212155 10.4032 0.151343 10.7312C0.0911032 11.0564 0.0501811 11.3649 0.0299486 11.6482C0.0100591 11.9258 0 12.214 0 12.5049C0 13.2622 0.248619 13.8753 0.738885 14.3275C1.22309 14.7736 1.86379 15 2.64291 15H9.85709C10.6362 15 11.2767 14.7738 11.761 14.3275C12.2514 13.8757 12.5 13.2625 12.5 12.5048C12.4999 12.2125 12.4897 11.9242 12.4697 11.6479Z" fill="#B07E09"/>
</svg>
