<svg width="10" height="10" viewBox="0 0 15 15" fill="none" xmlns="http://www.w3.org/2000/svg">
<path d="M12.8037 2.19659C9.87471 -0.732032 5.12586 -0.732359 2.19659 2.19659C-0.732359 5.12553 -0.732032 9.87439 2.19659 12.8037C5.12553 15.7319 9.87439 15.7323 12.8037 12.8037C15.7323 9.87439 15.7319 5.12586 12.8037 2.19659ZM8.47807 10.761C8.47807 11.3014 8.04013 11.7393 7.4998 11.7393C6.95946 11.7393 6.52152 11.3014 6.52152 10.761V6.84794C6.52152 6.30761 6.95946 5.86967 7.4998 5.86967C8.04013 5.86967 8.47807 6.30761 8.47807 6.84794V10.761ZM7.48251 5.17575C6.91903 5.17575 6.54337 4.77661 6.55511 4.28389C6.54337 3.76736 6.91903 3.38029 7.49393 3.38029C8.06915 3.38029 8.43307 3.76769 8.44513 4.28389C8.44481 4.77661 8.06948 5.17575 7.48251 5.17575Z" fill="#B07E09"/>
</svg>
