<svg width="15" height="15" viewBox="0 0 25 25" fill="none" xmlns="http://www.w3.org/2000/svg">
<path d="M15.6455 12.5C15.6455 10.7633 14.2315 9.35449 12.5 9.35449C10.7684 9.35449 9.35449 10.7633 9.35449 12.5C9.35449 14.2367 10.7684 15.6455 12.5 15.6455C14.2315 15.6455 15.6455 14.2367 15.6455 12.5Z" fill="#222222"/>
<path d="M7.94581 11.8853C7.60769 11.8853 7.33105 12.1619 7.33105 12.5C7.33105 12.8381 7.60769 13.1148 7.94581 13.1148C8.28392 13.1148 8.56056 12.8381 8.56056 12.5C8.56056 12.1619 8.28392 11.8853 7.94581 11.8853Z" fill="#222222"/>
<path d="M5.31787 12.5C5.31787 12.8381 5.59451 13.1148 5.93263 13.1148C6.27074 13.1148 6.54738 12.8381 6.54738 12.5C6.54738 12.1619 6.27074 11.8853 5.93263 11.8853C5.59451 11.8853 5.31787 12.1619 5.31787 12.5Z" fill="#222222"/>
<path d="M4.53381 12.4999C4.53381 11.2499 3.51435 10.2305 2.26435 10.2305C1.01434 10.2305 0 11.2499 0 12.4999C0 13.7499 1.01947 14.7694 2.26947 14.7694C3.51947 14.7694 4.53381 13.7499 4.53381 12.4999Z" fill="#222222"/>
<path d="M19.0674 13.1148C19.4069 13.1148 19.6821 12.8395 19.6821 12.5C19.6821 12.1605 19.4069 11.8853 19.0674 11.8853C18.7279 11.8853 18.4526 12.1605 18.4526 12.5C18.4526 12.8395 18.7279 13.1148 19.0674 13.1148Z" fill="#222222"/>
<path d="M17.0542 13.1148C17.3923 13.1148 17.669 12.8381 17.669 12.5C17.669 12.1619 17.3923 11.8853 17.0542 11.8853C16.7161 11.8853 16.4395 12.1619 16.4395 12.5C16.4395 12.8381 16.7161 13.1148 17.0542 13.1148Z" fill="#222222"/>
<path d="M22.7304 10.2305C21.4804 10.2305 20.4609 11.2499 20.4609 12.4999C20.4609 13.7499 21.4804 14.7694 22.7304 14.7694C23.9804 14.7694 24.9999 13.7499 24.9999 12.4999C24.9999 11.2499 23.9804 10.2305 22.7304 10.2305Z" fill="#222222"/>
<path d="M12.5 16.4395C12.1619 16.4395 11.8853 16.7161 11.8853 17.0542C11.8853 17.3923 12.1619 17.669 12.5 17.669C12.8381 17.669 13.1148 17.3923 13.1148 17.0542C13.1148 16.7161 12.8381 16.4395 12.5 16.4395Z" fill="#222222"/>
<path d="M12.5 18.4526C12.1619 18.4526 11.8853 18.7293 11.8853 19.0674C11.8853 19.4055 12.1619 19.6822 12.5 19.6822C12.8381 19.6822 13.1148 19.4055 13.1148 19.0674C13.1148 18.7293 12.8381 18.4526 12.5 18.4526Z" fill="#222222"/>
<path d="M12.4999 20.4663C11.2499 20.4663 10.2305 21.4858 10.2305 22.7358C10.2305 23.9858 11.2499 25.0001 12.4999 25.0001C13.7499 25.0001 14.7694 23.9807 14.7694 22.7307C14.7694 21.4807 13.7499 20.4663 12.4999 20.4663Z" fill="#222222"/>
<path d="M12.5 8.56056C12.8381 8.56056 13.1148 8.28392 13.1148 7.94581C13.1148 7.60769 12.8381 7.33105 12.5 7.33105C12.1619 7.33105 11.8853 7.60769 11.8853 7.94581C11.8853 8.28392 12.1619 8.56056 12.5 8.56056Z" fill="#222222"/>
<path d="M12.5 6.54689C12.8395 6.54689 13.1148 6.27166 13.1148 5.93214C13.1148 5.59262 12.8395 5.31738 12.5 5.31738C12.1605 5.31738 11.8853 5.59262 11.8853 5.93214C11.8853 6.27166 12.1605 6.54689 12.5 6.54689Z" fill="#222222"/>
<path d="M12.4999 4.53381C13.7499 4.53381 14.7694 3.51435 14.7694 2.26435C14.7694 1.01434 13.7499 0 12.4999 0C11.2499 0 10.2305 1.01947 10.2305 2.26947C10.2305 3.51947 11.2499 4.53381 12.4999 4.53381Z" fill="#222222"/>
<path d="M8.84758 15.287C8.6068 15.5278 8.6068 15.9172 8.84758 16.1579C9.08835 16.3987 9.4777 16.3987 9.71847 16.1579C9.95925 15.9172 9.95925 15.5278 9.71847 15.287C9.47257 15.0462 9.08323 15.0462 8.84758 15.287Z" fill="#222222"/>
<path d="M7.85841 17.7564C8.19793 17.7564 8.47316 17.4811 8.47316 17.1416C8.47316 16.8021 8.19793 16.5269 7.85841 16.5269C7.51889 16.5269 7.24365 16.8021 7.24365 17.1416C7.24365 17.4811 7.51889 17.7564 7.85841 17.7564Z" fill="#222222"/>
<path d="M3.66275 18.1301C2.77648 19.0164 2.77648 20.4508 3.66275 21.3371C4.54902 22.2233 5.98345 22.2233 6.86972 21.3371C7.75599 20.4508 7.75599 19.0164 6.86972 18.1301C5.98345 17.249 4.5439 17.249 3.66275 18.1301Z" fill="#222222"/>
<path d="M17.1416 8.47316C17.4811 8.47316 17.7564 8.19793 17.7564 7.85841C17.7564 7.51889 17.4811 7.24365 17.1416 7.24365C16.8021 7.24365 16.5269 7.51889 16.5269 7.85841C16.5269 8.19793 16.8021 8.47316 17.1416 8.47316Z" fill="#222222"/>
<path d="M15.7222 9.89259C16.0617 9.89259 16.3369 9.61736 16.3369 9.27784C16.3369 8.93832 16.0617 8.66309 15.7222 8.66309C15.3827 8.66309 15.1074 8.93832 15.1074 9.27784C15.1074 9.61736 15.3827 9.89259 15.7222 9.89259Z" fill="#222222"/>
<path d="M21.337 6.86971C22.2233 5.98344 22.2233 4.54902 21.337 3.66275C20.4507 2.77648 19.0163 2.77648 18.13 3.66275C17.2438 4.54902 17.2438 5.98344 18.13 6.86971C19.0163 7.75598 20.4559 7.75086 21.337 6.86971Z" fill="#222222"/>
<path d="M17.1416 17.7564C17.4811 17.7564 17.7564 17.4811 17.7564 17.1416C17.7564 16.8021 17.4811 16.5269 17.1416 16.5269C16.8021 16.5269 16.5269 16.8021 16.5269 17.1416C16.5269 17.4811 16.8021 17.7564 17.1416 17.7564Z" fill="#222222"/>
<path d="M15.287 15.287C15.0462 15.5278 15.0462 15.9172 15.287 16.1579C15.5278 16.3987 15.9172 16.3987 16.1579 16.1579C16.3987 15.9172 16.3987 15.5278 16.1579 15.287C15.9172 15.0462 15.5278 15.0462 15.287 15.287Z" fill="#222222"/>
<path d="M18.13 18.1301C17.2438 19.0164 17.2438 20.4508 18.13 21.3371C19.0163 22.2233 20.4507 22.2233 21.337 21.3371C22.2233 20.4508 22.2233 19.0164 21.337 18.1301C20.4559 17.249 19.0163 17.249 18.13 18.1301Z" fill="#222222"/>
<path d="M9.27784 9.89259C9.61736 9.89259 9.89259 9.61736 9.89259 9.27784C9.89259 8.93832 9.61736 8.66309 9.27784 8.66309C8.93832 8.66309 8.66309 8.93832 8.66309 9.27784C8.66309 9.61736 8.93832 9.89259 9.27784 9.89259Z" fill="#222222"/>
<path d="M7.85841 8.47316C8.19793 8.47316 8.47316 8.19793 8.47316 7.85841C8.47316 7.51889 8.19793 7.24365 7.85841 7.24365C7.51889 7.24365 7.24365 7.51889 7.24365 7.85841C7.24365 8.19793 7.51889 8.47316 7.85841 8.47316Z" fill="#222222"/>
<path d="M6.86972 6.86972C7.75599 5.98345 7.75599 4.54902 6.86972 3.66275C5.98345 2.77648 4.54902 2.77648 3.66275 3.66275C2.77648 4.54902 2.77648 5.98345 3.66275 6.86972C4.5439 7.75087 5.98345 7.75087 6.86972 6.86972Z" fill="#222222"/>
</svg>
