<svg width="15" height="15" viewBox="0 0 24 21" fill="none" xmlns="http://www.w3.org/2000/svg">
<path d="M22.4073 3.75331H7.90637C7.67278 3.75331 7.48346 3.56399 7.48346 3.3304C7.48346 3.09681 7.67278 2.90749 7.90637 2.90749H12.1685L10.2968 0.598348C9.99778 0.22467 9.54662 0.00495597 9.06788 0H3.61534C2.73087 0.0110683 2.01738 0.726377 2.00879 1.61085V16.6799C2.01738 17.5642 2.73087 18.2795 3.61534 18.2908H22.4073C23.2815 18.2908 24 17.5543 24 16.6799V5.33376C23.9952 4.45804 23.283 3.75116 22.4073 3.75331Z" fill="#222222"/>
<path d="M2.28899 20.2994H20.3846C21.1127 20.2994 21.7275 19.7707 21.9129 19.1364H3.61537C2.27462 19.1364 1.163 18.0204 1.163 16.6797V2.0874C0.528635 2.26829 0 2.88647 0 3.61945V18.6885C0 19.5629 0.718448 20.2994 1.59268 20.2994H2.28899Z" fill="#222222"/>
</svg>
