<svg width="15" height="15" viewBox="0 0 24 21" fill="none" xmlns="http://www.w3.org/2000/svg">
<path d="M14.483 3.46657C15.5927 4.16234 16.3708 5.33972 16.5125 6.7064C16.965 6.91786 17.4673 7.03946 17.9999 7.03946C19.944 7.03946 21.5197 5.46372 21.5197 3.51988C21.5197 1.57574 19.944 0 17.9999 0C16.0743 0.000599027 14.5123 1.54818 14.483 3.46657ZM12.177 10.6735C14.1212 10.6735 15.6969 9.09742 15.6969 7.15358C15.6969 5.20973 14.1209 3.634 12.177 3.634C10.2332 3.634 8.65653 5.21003 8.65653 7.15388C8.65653 9.09772 10.2332 10.6735 12.177 10.6735ZM13.6701 10.9134H10.6833C8.19828 10.9134 6.17656 12.9354 6.17656 15.4204V19.073L6.18585 19.1302L6.43744 19.209C8.80899 19.95 10.8693 20.1971 12.5652 20.1971C15.8775 20.1971 17.7974 19.2527 17.9157 19.1925L18.1508 19.0736H18.176V15.4204C18.1769 12.9354 16.1551 10.9134 13.6701 10.9134ZM19.4935 7.27967H16.5298C16.4978 8.46544 15.9916 9.53321 15.191 10.3012C17.3999 10.958 19.0161 13.0064 19.0161 15.4258V16.5514C21.9423 16.4442 23.6286 15.6148 23.7397 15.5591L23.9748 15.4399H24V11.7861C24 9.30139 21.9783 7.27967 19.4935 7.27967ZM6.00075 7.04006C6.68933 7.04006 7.32999 6.83909 7.87271 6.49674C8.04523 5.37147 8.64845 4.38817 9.51015 3.71846C9.51374 3.65257 9.52003 3.58727 9.52003 3.52078C9.52003 1.57664 7.94399 0.000898475 6.00075 0.000898475C4.05631 0.000898475 2.48087 1.57664 2.48087 3.52078C2.48087 5.46402 4.05631 7.04006 6.00075 7.04006ZM9.16181 10.3012C8.36511 9.5371 7.86073 8.47503 7.82389 7.29644C7.71397 7.28836 7.60524 7.27967 7.49322 7.27967H4.50678C2.02171 7.27967 0 9.30139 0 11.7861V15.4393L0.00928491 15.4956L0.260876 15.575C2.16338 16.1689 3.86133 16.4427 5.33613 16.5289V15.4258C5.33673 13.0064 6.9523 10.9586 9.16181 10.3012Z" fill="#222222"/>
</svg>
