<svg width="15" height="15" viewBox="0 0 20 24" fill="none" xmlns="http://www.w3.org/2000/svg">
<path d="M9.66435 23.5479C11.0005 23.5479 12.0819 22.4665 12.0819 21.1304H7.25246C7.2468 22.4665 8.32819 23.5479 9.66435 23.5479Z" fill="#222222"/>
<path d="M16.9115 16.3007V10.2597C16.9115 6.54561 14.9356 3.44865 11.4763 2.62771V1.85206C11.4763 0.832949 10.644 -0.0276294 9.62489 0.000679137C8.63975 0.0176642 7.85278 0.815964 7.85278 1.80676V2.62771C4.39348 3.44865 2.41755 6.54561 2.41755 10.2597V16.3007L0.237791 18.4805C0.0849255 18.6333 0 18.8372 0 19.0466V19.1202C0 19.5619 0.356687 19.9242 0.803961 19.9242H18.5251C18.9667 19.9242 19.329 19.5675 19.329 19.1202V19.0466C19.329 18.8315 19.2441 18.6277 19.0913 18.4805L16.9115 16.3007Z" fill="#222222"/>
</svg>
