<svg width="15" height="15" viewBox="0 0 25 26" fill="none" xmlns="http://www.w3.org/2000/svg">
<path d="M24.2666 23.5703H23.4842V11.101C23.4842 10.7782 23.2789 10.4995 22.9854 10.4115L16.1494 8.12305V25.0372H24.2666C24.6775 25.0372 25.0002 24.7144 25.0002 24.3038C25.0001 23.893 24.6774 23.5703 24.2666 23.5703ZM22.0173 23.5703H20.5503V20.6363H19.0833V23.5703H17.6164V19.9028C17.6164 19.492 17.9391 19.1693 18.3499 19.1693H21.2838C21.6946 19.1693 22.0173 19.492 22.0173 19.9028V23.5703H22.0173ZM21.2838 17.7024H18.3499C17.9391 17.7024 17.6164 17.3796 17.6164 16.9689C17.6164 16.5581 17.9391 16.2354 18.3499 16.2354H21.2838C21.6946 16.2354 22.0173 16.5581 22.0173 16.9689C22.0173 17.3796 21.6946 17.7024 21.2838 17.7024ZM21.2838 14.7685H18.3499C17.9391 14.7685 17.6164 14.4457 17.6164 14.035C17.6164 13.6242 17.9391 13.3015 18.3499 13.3015H21.2838C21.6946 13.3015 22.0173 13.6242 22.0173 14.035C22.0173 14.4457 21.6946 14.7685 21.2838 14.7685Z" fill="#222222"/>
<path d="M14.2492 4.44565L2.51344 0.0447567C2.0147 -0.131285 1.51591 0.235468 1.51591 0.734302V23.5701H0.733507C0.322694 23.5701 0 23.8928 0 24.3036C0 24.7143 0.322694 25.037 0.733507 25.037H14.7186C14.7186 20.2739 14.7186 17.1109 14.7186 5.1352C14.7186 4.82708 14.5279 4.54834 14.2492 4.44565ZM7.38373 23.5701H4.4498V19.9026C4.4498 19.4918 4.77249 19.1691 5.1833 19.1691H7.38377V23.5701H7.38373ZM6.65027 17.7022H5.1833C4.77249 17.7022 4.4498 17.3794 4.4498 16.9687C4.4498 16.5579 4.77249 16.2352 5.1833 16.2352H6.65027C7.06108 16.2352 7.38377 16.5579 7.38377 16.9687C7.38373 17.3794 7.06108 17.7022 6.65027 17.7022ZM6.65027 14.7683H5.1833C4.77249 14.7683 4.4498 14.4455 4.4498 14.0348C4.4498 13.624 4.77249 13.3013 5.1833 13.3013H6.65027C7.06108 13.3013 7.38377 13.624 7.38377 14.0348C7.38373 14.4455 7.06108 14.7683 6.65027 14.7683ZM6.65027 11.8344H5.1833C4.77249 11.8344 4.4498 11.5116 4.4498 11.1009C4.4498 10.69 4.77249 10.3674 5.1833 10.3674H6.65027C7.06108 10.3674 7.38377 10.69 7.38377 11.1009C7.38373 11.5116 7.06108 11.8344 6.65027 11.8344ZM6.65027 8.90043H5.1833C4.77249 8.90043 4.4498 8.57764 4.4498 8.16693C4.4498 7.75611 4.77249 7.43342 5.1833 7.43342H6.65027C7.06108 7.43342 7.38377 7.75611 7.38377 8.16693C7.38373 8.57764 7.06108 8.90043 6.65027 8.90043ZM11.7847 23.5701H8.85074V19.1692H11.0512C11.462 19.1692 11.7847 19.4919 11.7847 19.9027V23.5701H11.7847ZM11.0512 17.7022H9.5842C9.17339 17.7022 8.85069 17.3794 8.85069 16.9687C8.85069 16.5579 9.17339 16.2352 9.5842 16.2352H11.0512C11.462 16.2352 11.7847 16.5579 11.7847 16.9687C11.7847 17.3794 11.462 17.7022 11.0512 17.7022ZM11.0512 14.7683H9.5842C9.17339 14.7683 8.85069 14.4455 8.85069 14.0348C8.85069 13.624 9.17339 13.3013 9.5842 13.3013H11.0512C11.462 13.3013 11.7847 13.624 11.7847 14.0348C11.7847 14.4455 11.462 14.7683 11.0512 14.7683ZM11.0512 11.8344H9.5842C9.17339 11.8344 8.85069 11.5116 8.85069 11.1009C8.85069 10.69 9.17339 10.3674 9.5842 10.3674H11.0512C11.462 10.3674 11.7847 10.69 11.7847 11.1009C11.7847 11.5116 11.462 11.8344 11.0512 11.8344ZM11.0512 8.90043H9.5842C9.17339 8.90043 8.85069 8.57764 8.85069 8.16693C8.85069 7.75611 9.17339 7.43342 9.5842 7.43342H11.0512C11.462 7.43342 11.7847 7.75611 11.7847 8.16693C11.7847 8.57764 11.462 8.90043 11.0512 8.90043Z" fill="#222222"/>
</svg>
