<svg width="15" height="15" viewBox="0 0 20 20" fill="none" xmlns="http://www.w3.org/2000/svg">
<path d="M2.62787 3.57404C2.69037 3.58972 2.74757 3.62213 2.79315 3.66767L7.88541 8.76003L8.80686 7.83867L3.7145 2.74632C3.66883 2.70069 3.63655 2.64331 3.62078 2.58063L3.30028 1.30303L1.17566 0.0883789L0.135254 1.12874L1.35027 3.25482L2.62787 3.57404Z" fill="#222222"/>
<path d="M7.15663 15.1898L15.2373 7.10902C15.3258 7.02041 15.4542 6.98489 15.5756 7.01511C16.6395 7.28778 17.7696 7.0515 18.6355 6.37594C19.5015 5.70034 20.0053 4.66139 19.9995 3.56315C19.9995 3.49626 19.9975 3.42887 19.9932 3.36088L18.1137 5.24012C18.0185 5.33544 17.8772 5.36886 17.7492 5.32616L15.6116 4.61352C15.5051 4.57827 15.4216 4.49479 15.3861 4.38844L14.6737 2.25075C14.6309 2.12292 14.6642 1.98164 14.7597 1.88622L16.6391 0.00685108C15.5074 -0.063558 14.4101 0.411932 13.6872 1.28555C12.9645 2.15936 12.7033 3.32623 12.9844 4.42465C13.0148 4.54627 12.9794 4.67465 12.8908 4.76321L4.81027 12.8434C4.72162 12.9313 4.59333 12.967 4.4718 12.9372C4.19049 12.865 3.90117 12.8276 3.61057 12.8264C2.07616 12.8163 0.705147 13.7836 0.199939 15.2328C-0.304994 16.6819 0.16789 18.2918 1.37636 19.2376C2.58484 20.1833 4.26122 20.2557 5.5465 19.4172C6.83188 18.5787 7.44133 17.0154 7.06253 15.5282C7.03241 15.4068 7.06802 15.2782 7.15663 15.1898ZM4.47779 17.8144H2.74363L1.88834 16.3893L2.74363 14.9641H4.47779L5.3329 16.3893L4.47779 17.8144ZM5.85278 13.6434L13.6909 5.80522L14.1946 6.30901L6.35648 14.1472L5.85278 13.6434Z" fill="#222222"/>
<path d="M17.0781 19.8142C17.8717 20.1126 18.7664 19.9191 19.3659 19.3196C19.9655 18.72 20.159 17.8251 19.8605 17.0317L17.0781 19.8142Z" fill="#222222"/>
<path d="M19.3657 16.26L15.3641 12.2569C14.9227 12.6279 14.2709 12.5997 13.863 12.1922C13.455 11.7849 13.4262 11.1332 13.7966 10.6914L13.2299 10.124L10.1709 13.1832L10.741 13.7532C11.1824 13.3822 11.8343 13.4103 12.242 13.8177C12.65 14.2251 12.6789 14.8768 12.3085 15.3187L16.3067 19.319C16.3503 19.3626 16.3963 19.403 16.4428 19.4423L19.4891 16.396C19.4499 16.3495 19.4093 16.3036 19.3657 16.26ZM17.2533 17.7103L13.6906 14.1475L14.1943 13.6437L17.7571 17.2067L17.2533 17.7103Z" fill="#222222"/>
</svg>
