<svg width="15" height="15" viewBox="0 0 25 25" fill="none" xmlns="http://www.w3.org/2000/svg">
<path d="M25 10.9356C25 10.2797 24.4666 9.74653 23.8107 9.74653H21.9198C21.7219 9.06605 21.4503 8.40936 21.1083 7.78637L22.4447 6.44947C22.6655 6.22834 22.7931 5.92193 22.7931 5.60829C22.7931 5.29011 22.6695 4.99171 22.4447 4.76711L20.2326 2.55481C19.8013 2.123 18.9832 2.12219 18.5508 2.55481L17.2139 3.89171C16.5917 3.54947 15.9342 3.27781 15.2535 3.07968V1.18931C15.2535 0.533423 14.7201 0 14.0647 0H10.9356C10.2797 0 9.74653 0.533423 9.74653 1.18931V3.07995C9.06578 3.27808 8.40829 3.54973 7.78583 3.89198L6.44893 2.55508C5.99973 2.10615 5.21658 2.10615 4.76765 2.55508L2.55481 4.76738C2.09118 5.23102 2.09118 5.9853 2.55481 6.44893L3.89145 7.78583C3.54947 8.40883 3.27781 9.06605 3.07968 9.74653H1.18931C0.533423 9.74653 0 10.28 0 10.9356V14.0642C0 14.7201 0.533423 15.2532 1.18931 15.2532H3.07995C3.27781 15.9337 3.54973 16.5909 3.89171 17.2136L2.55535 18.5503C2.33423 18.7714 2.20695 19.0781 2.20695 19.3915C2.20695 19.7094 2.33048 20.0083 2.55508 20.2326L4.76738 22.4447C5.19893 22.8765 6.01712 22.8776 6.4492 22.4447L7.7861 21.1078C8.40856 21.4497 9.06578 21.7219 9.7468 21.9198V23.8104C9.7468 24.4663 10.2802 24.9997 10.9358 24.9997H14.0647C14.7206 24.9997 15.2535 24.4663 15.2535 23.8104V21.9198C15.9342 21.7219 16.5917 21.4503 17.2139 21.1078L18.5508 22.4447C19.0003 22.8939 19.7829 22.8939 20.2321 22.4447L22.4447 20.2326C22.9083 19.769 22.9083 19.0147 22.4447 18.5511L21.1083 17.2139C21.4503 16.5912 21.7219 15.934 21.9198 15.2535H23.8104C24.4663 15.2535 24.9997 14.7201 24.9997 14.0647V10.9356H25ZM16.8308 12.5C16.8308 14.8882 14.888 16.8308 12.5 16.8308C10.112 16.8308 8.16925 14.888 8.16925 12.5C8.16925 10.112 10.112 8.16925 12.5 8.16925C14.8882 8.16925 16.8308 10.112 16.8308 12.5Z" fill="black"/>
</svg>
