<svg width="15" height="15" viewBox="0 0 22 24" fill="none" xmlns="http://www.w3.org/2000/svg">
<path d="M5.57807 0H4.11914V1.71639H5.57807V0Z" fill="black"/>
<path d="M11.6713 0H10.2124V1.71639H11.6713V0Z" fill="black"/>
<path d="M17.7646 0H16.3057V1.71639H17.7646V0Z" fill="black"/>
<path d="M0 23.2999H19.0948C20.6396 23.2999 21.884 22.0555 21.884 20.5107V7.72363H0V23.2999ZM9.61179 13.731L10.8991 9.74039L12.1864 13.731H16.0053L12.9158 15.9194L14.1602 19.6955L10.942 17.3783L7.68085 19.6955L8.92523 15.9194L5.83573 13.731H9.61179Z" fill="black"/>
<path d="M0 6.26474H21.8411V1.71631H17.7646V4.37671H16.3057V1.71631H11.6715V4.37671H10.2125V1.71631H5.57827V4.37671H4.11934V1.71631H0V6.26474Z" fill="black"/>
</svg>
