<svg width="175" height="145" viewBox="0 0 175 145" fill="none" xmlns="http://www.w3.org/2000/svg">
<path d="M65.1108 117.55V143.506L85.3258 134.5V108.15C82.0741 109.881 78.8617 111.533 75.6101 113.027C72.1626 114.6 68.6759 116.134 65.1108 117.55Z" fill="black"/>
<path d="M93.2786 103.824V130.842L113.493 121.836V91.3574C108.949 94.7002 104.365 97.6891 99.2725 100.481C97.3137 101.583 95.3157 102.684 93.2786 103.824Z" fill="black"/>
<path d="M134.257 74.2105C129.712 78.4186 124.933 82.43 120.036 86.3234V119.004L140.251 109.998V68.4688C138.253 70.3958 136.294 72.3228 134.257 74.2105Z" fill="black"/>
<path d="M140.212 59.778V8.49511L118.312 1.10156L98.2539 10.0289L119.997 17.4617V76.4921C117.881 78.0652 115.727 79.599 113.493 81.1721V40.4683L91.594 33.0747L71.5358 42.002L93.2786 49.4349V94.1108C91.6332 95.094 89.9878 96.0378 88.264 96.9817C87.2454 97.5323 86.3052 98.0828 85.2866 98.5941V69.0986L63.3871 61.705L43.3289 70.6323L65.0717 78.0652V108.229C28.4811 123.252 6.54248 117.747 5.71978 105.162C4.74038 90.1387 26.2873 80.4249 26.2873 80.4249V69.9638C-1.84122 87.9364 1.52793 105.87 1.52793 105.87C1.52793 105.909 1.52793 105.948 1.52793 105.988C1.52793 107.207 1.72381 108.426 2.0764 109.566C2.70322 111.847 3.8785 113.971 5.44555 115.78C7.79612 118.415 10.9302 120.185 14.2602 121.286C19.6665 123.056 25.5429 123.174 31.1843 122.741C40.5866 122.033 49.8322 119.674 58.8035 116.842C60.919 116.173 62.9954 115.387 65.0717 114.561C68.6367 113.145 72.1234 111.611 75.5709 109.999C78.7834 108.505 82.035 106.853 85.2866 105.122C87.9506 103.707 90.6146 102.252 93.2786 100.796C95.3157 99.6953 97.3137 98.5548 99.2725 97.4929C104.365 94.7007 108.949 91.7118 113.493 88.369C114.865 87.3465 116.275 86.324 117.646 85.2228C118.43 84.5936 119.213 83.9643 119.997 83.3351C124.894 79.4417 129.673 75.4303 134.218 71.2223C136.255 69.3345 138.253 67.4075 140.212 65.4805C145.265 60.4466 150.123 55.1767 154.589 49.5922C159.055 44.047 163.247 38.2266 166.891 32.0915C169.124 28.3161 171.2 24.4227 172.924 20.4113C173.315 19.5068 173.59 18.4056 173.942 17.4224C171.748 22.1024 162.581 39.0918 140.212 59.778Z" fill="black"/>
</svg>
