<svg min-width="200" min-height="66" viewBox="0 0 200 66" fill="none" xmlns="http://www.w3.org/2000/svg">
<path d="M29.6055 53.9404V65.9721L38.988 61.8143V49.5986C37.4795 50.4081 35.9709 51.1808 34.4623 51.8431C32.8802 52.579 31.2612 53.2781 29.6055 53.9404Z" fill="white"/>
<path d="M42.7412 47.5751V60.0851L52.1238 55.9274V41.7983C50.0265 43.3437 47.8924 44.7419 45.5008 46.0297C44.5809 46.5448 43.6611 47.0599 42.7412 47.5751Z" fill="white"/>
<path d="M61.7636 33.8509C59.6663 35.801 57.4219 37.6775 55.1406 39.4436V54.5661L64.5232 50.4083V31.2017C63.6401 32.1215 62.7203 33.0046 61.7636 33.8509Z" fill="white"/>
<path d="M64.5601 27.191V3.42187L54.368 0L45.0591 4.12096L55.1775 7.57963V34.9546C54.1841 35.6905 53.1906 36.3896 52.1604 37.1255V18.25L41.9684 14.8281L32.6226 18.9491L42.741 22.4077V43.0861C41.9684 43.5277 41.1957 43.9692 40.423 44.4107C39.9447 44.6683 39.5031 44.9259 39.0616 45.1466V31.5327L28.8696 28.1109L19.5238 32.2318L29.6423 35.6905V49.6723C12.6065 56.6265 2.41446 54.0876 2.04652 48.2374C1.56819 41.2832 11.613 36.7575 11.613 36.7575V31.9375C-1.52253 40.253 0.0596264 48.5685 0.0596264 48.5685V48.6053C0.0596264 49.1572 0.170009 49.7091 0.317187 50.261C0.611541 51.3281 1.16346 52.3215 1.89934 53.131C3.00317 54.3452 4.47494 55.1915 6.02031 55.6698C8.52232 56.4793 11.2819 56.5529 13.8943 56.3321C18.2728 56.0009 22.5777 54.9339 26.7355 53.6093C27.729 53.315 28.6856 52.947 29.6423 52.5423C31.298 51.88 32.917 51.1809 34.5359 50.445C36.0445 49.7459 37.553 48.9732 39.0616 48.2006C40.3126 47.5383 41.5636 46.876 42.7778 46.2137C43.7345 45.6985 44.6543 45.1834 45.5742 44.6683C47.929 43.3805 50.0631 41.9823 52.1972 40.437C52.8595 39.9586 53.485 39.4803 54.1473 38.9652C54.5152 38.6708 54.8832 38.3765 55.2511 38.0821C57.5324 36.2792 59.7768 34.4027 61.8741 32.4894C62.8307 31.6063 63.7506 30.7233 64.6705 29.8402C67.0253 27.5222 69.2697 25.0569 71.367 22.4813C73.4643 19.9057 75.3776 17.2197 77.0701 14.3866C78.1004 12.6572 79.0938 10.8543 79.8665 8.97781C80.0505 8.57308 80.1609 8.05796 80.3448 7.57963C79.2042 9.7137 74.9361 17.5877 64.5601 27.191Z" fill="white"/>
<path d="M179.064 36.7942C178.549 36.7942 177.887 36.7206 177.04 36.5367C176.194 36.3895 175.752 36.1687 175.679 35.9112C175.495 35.3592 175.421 34.0347 175.421 31.9374V26.0503C175.421 24.3945 175.385 23.0332 175.274 21.8925C175.164 20.7519 174.98 19.6849 174.685 18.7282C174.391 17.7716 173.986 16.9989 173.471 16.447C172.956 15.8951 172.294 15.4535 171.484 15.1592C170.675 14.8648 169.718 14.7176 168.541 14.7176C167.4 14.7176 166.076 15.1592 164.604 16.079C163.132 16.9989 162.028 17.8452 161.329 18.6178C161.256 18.6914 161.219 18.7282 161.182 18.7282C161.108 18.7282 161.072 18.6546 161.072 18.5075C161.072 17.9555 161.182 16.9621 161.403 15.4535C161.403 15.3063 161.329 15.1224 161.219 14.9016C161.072 14.6808 160.961 14.5705 160.814 14.5705C158.606 15.4167 153.749 16.6677 153.234 16.8149C153.014 16.5206 152.756 16.2262 152.462 15.9318C151.91 15.3799 151.1 14.9384 150.144 14.5705C149.15 14.2025 148.083 14.0185 146.869 14.0185C145.692 14.0185 144.477 14.3497 143.226 15.012C141.975 15.6743 140.835 16.5574 139.841 17.6612C139.363 18.1763 138.921 18.765 138.553 19.3537C138.296 18.8386 138.001 18.3235 137.67 17.8452C136.898 16.7045 135.904 15.8215 134.616 15.1224C133.329 14.4233 131.894 14.0553 130.348 14.0553C129.392 14.0553 128.251 14.3865 127 15.0488C125.712 15.7111 124.682 16.4102 123.836 17.1093C123.762 17.1829 123.725 17.2196 123.689 17.2196C123.615 17.2196 123.578 17.1461 123.578 16.9989C123.578 16.8149 123.652 16.4102 123.762 15.7847C123.872 15.1592 123.946 14.828 123.946 14.7912C123.946 14.644 123.872 14.4601 123.762 14.2393C123.652 14.0185 123.505 13.9082 123.357 13.9082C122.695 14.2025 117.654 15.6007 116.146 16.0422C116.072 15.5639 115.998 15.0856 115.888 14.644C115.41 14.6073 114.564 14.4601 113.386 14.2393C112.209 14.0185 111.215 13.945 110.406 13.945C108.345 13.945 106.542 14.5705 104.997 15.7847C103.452 16.9989 102.679 18.581 102.679 20.4576C102.679 21.7454 103.047 22.8492 103.783 23.769C104.519 24.6521 105.512 25.4616 106.763 26.1975C107.131 26.4182 107.757 26.7494 108.566 27.1909C109.412 27.6324 110.038 27.9636 110.443 28.2212C110.847 28.4787 111.326 28.8099 111.841 29.2514C112.356 29.6929 112.724 30.1345 112.945 30.6496C113.165 31.1647 113.276 31.7166 113.276 32.3421C113.276 33.5195 112.908 34.4762 112.209 35.1753C111.473 35.8744 110.553 36.2055 109.449 36.2055C108.125 36.2055 106.91 35.6904 105.843 34.6234C105.475 34.2554 105.144 33.8875 104.887 33.5195C104.666 32.9676 104.408 32.2317 104.04 31.3487L93.1492 2.79628C93.1124 2.79628 93.0756 2.75948 93.002 2.68589C92.9285 2.6491 92.8917 2.6123 92.8181 2.6123C92.5973 2.6123 92.2294 2.79628 91.751 3.20101C91.2727 3.56896 90.9416 3.90011 90.7944 4.19446C88.6235 9.7504 85.1648 18.5442 80.492 30.6496C79.5721 33.0044 78.7258 34.697 77.99 35.6904C77.7692 35.9848 77.2909 36.2423 76.555 36.4263C75.8191 36.6103 75.2304 36.7206 74.7889 36.7206C74.7153 36.9046 74.6785 36.8678 74.6785 37.2726C74.6785 37.6773 74.7153 37.8981 74.7889 37.9716H85.68C85.7168 37.8245 85.7536 37.5301 85.7168 37.1254C85.68 36.7206 85.6432 36.7942 85.5696 36.7206C85.3856 36.7206 85.1281 36.7206 84.7969 36.6838C84.4658 36.647 84.061 36.5735 83.5827 36.4999C83.1044 36.3895 82.6996 36.2423 82.3685 36.0215C82.0373 35.8008 81.8902 35.5432 81.8902 35.2489C81.8902 34.1818 82.1477 32.9308 82.626 31.4591C83.2148 29.7665 84.0242 27.5589 85.0177 24.9465L85.2752 24.7993C86.8942 24.6889 88.8075 24.6521 91.0519 24.6521C94.1059 24.6521 95.872 24.6521 96.3503 24.6889C96.4607 24.6889 96.5711 24.7625 96.6815 24.9097L97.6013 27.1541C98.19 28.6627 98.8155 30.2816 99.4043 32.011C99.993 33.7403 100.324 34.8441 100.324 35.3225C100.324 35.6904 100.251 35.9112 100.103 36.0583C99.8826 36.2423 99.441 36.4263 98.7419 36.5367C98.0429 36.6838 97.4909 36.7206 97.0862 36.7206C96.939 36.8678 96.8654 37.0518 96.8654 37.4197C96.8654 37.7877 96.9022 37.8245 97.0126 37.9716H109.081C109.155 37.9716 109.228 37.9716 109.339 37.9716C111.583 37.9716 113.496 37.2726 115.115 35.8744C116.734 34.4762 117.544 32.7101 117.544 30.6128C117.544 30.1345 117.47 29.6929 117.36 29.2882C117.249 28.8834 117.029 28.4787 116.734 28.074C116.44 27.706 116.182 27.3749 115.925 27.0805C115.667 26.7862 115.299 26.4918 114.821 26.1607C114.343 25.8295 113.975 25.572 113.68 25.4248C113.423 25.2408 113.018 25.02 112.466 24.6889C111.914 24.3577 111.546 24.1738 111.399 24.0634C111.178 23.953 110.81 23.7322 110.259 23.4011C109.707 23.1067 109.339 22.8492 109.118 22.702C108.897 22.5548 108.603 22.3341 108.235 22.0397C107.867 21.7453 107.573 21.451 107.425 21.1934C107.278 20.9359 107.131 20.6415 106.984 20.2368C106.837 19.8688 106.8 19.4273 106.8 18.9858C106.8 17.9923 107.131 17.1829 107.793 16.5574C108.456 15.9318 109.376 15.6375 110.627 15.6375C111.657 15.6375 112.577 16.1526 113.423 17.1829C114.232 18.2131 114.821 19.3537 115.115 20.5311C115.336 20.7151 115.631 20.7887 116.035 20.7887C116.403 20.7887 116.587 20.7151 116.587 20.5311C116.55 19.4641 116.477 18.5075 116.403 17.5876C116.55 17.5876 116.661 17.5876 116.808 17.5876C117.176 17.6244 117.654 17.698 118.243 17.8819C118.795 18.0291 119.163 18.2499 119.273 18.5075C119.457 18.949 119.531 19.8688 119.531 21.3038V43.1596C119.494 45.3673 119.42 46.6551 119.273 47.1334C119.2 47.391 118.758 47.575 117.912 47.7589C117.066 47.9061 116.403 48.0165 115.888 48.0165C115.778 48.1637 115.778 48.1269 115.778 48.5316C115.778 48.8996 115.815 49.0467 115.925 49.1939H127.294C127.405 49.0467 127.478 48.8996 127.478 48.5316C127.478 48.1637 127.368 48.1637 127.258 48.0165C126.742 48.0165 126.08 47.9429 125.234 47.7589C124.388 47.6118 123.946 47.391 123.872 47.1334C123.689 46.5815 123.615 45.2569 123.615 43.1596V37.9716C123.615 37.6773 123.689 37.4565 123.836 37.2726C125.087 37.6773 126.338 37.8613 127.589 37.8613C129.097 37.8613 130.569 37.5301 132.078 36.831C133.586 36.1319 134.911 35.2121 136.088 34.0714C136.677 33.5195 137.192 32.894 137.67 32.1949C138.112 33.078 138.701 33.8875 139.4 34.6602C141.387 36.7574 143.962 37.8245 147.09 37.8245C148.083 37.8245 149.003 37.6773 149.923 37.3461C150.806 37.015 151.579 36.6103 152.241 36.1319C152.903 35.6536 153.418 35.1385 153.86 34.6969C154.301 34.2186 154.633 33.7771 154.927 33.2988C155.148 32.9308 155.258 32.6365 155.258 32.3421C155.258 32.2317 155.221 32.0846 155.148 31.9742C155.074 31.8638 155 31.7534 154.964 31.6798C154.89 31.6062 154.853 31.5694 154.817 31.5694C154.265 32.1949 153.455 32.8572 152.425 33.4827C151.395 34.1082 150.217 34.4026 148.929 34.4026C146.427 34.4026 144.33 33.5195 142.638 31.7166C140.945 29.9137 140.136 27.4117 140.209 24.137C140.687 24.137 142.858 24.1002 146.759 23.9898C150.659 23.8794 152.977 23.8058 153.713 23.769C154.191 23.769 154.522 23.5483 154.706 23.1067C154.89 22.702 155 22.0765 155 21.267C155 20.7887 154.927 20.2736 154.78 19.6849C154.669 19.2433 154.485 18.765 154.228 18.2499C154.265 18.2499 154.301 18.2499 154.338 18.2499C154.706 18.2867 155.184 18.3603 155.773 18.5442C156.325 18.6914 156.693 18.9122 156.803 19.1697C156.987 19.6113 157.061 20.6047 157.061 22.1501V31.8638C157.061 33.9243 156.987 35.2489 156.803 35.8376C156.73 36.0951 156.288 36.2791 155.442 36.4631C154.596 36.6103 153.933 36.7206 153.418 36.7206C153.308 36.8678 153.271 37.0518 153.234 37.4197C153.234 37.7877 153.271 37.7877 153.418 37.8981H164.788C164.898 37.7509 164.935 37.6773 164.935 37.3093C164.935 36.9414 164.898 36.831 164.788 36.6838C164.273 36.6838 163.61 36.6103 162.764 36.4263C161.918 36.2791 161.476 36.0583 161.403 35.8008C161.219 35.2489 161.145 33.9243 161.145 31.827V20.8255C161.145 20.6415 161.439 20.3104 161.991 19.8688C162.543 19.3905 163.242 18.949 164.089 18.5442C164.935 18.1027 165.634 17.9187 166.223 17.9187C168.283 17.9187 169.645 18.5442 170.38 19.7585C171.116 21.0095 171.448 23.2907 171.448 26.6758V32.011C171.448 34.0714 171.374 35.396 171.19 35.9848C171.116 36.2423 170.675 36.4263 169.829 36.6103C168.982 36.7574 168.32 36.8678 167.805 36.8678C167.695 37.015 167.621 37.1254 167.621 37.4933C167.621 37.8613 167.695 37.9349 167.805 38.082H179.174C179.285 37.9349 179.358 37.9716 179.358 37.6037C179.248 37.1622 179.174 36.9414 179.064 36.7942ZM95.5408 22.1869C95.5408 22.2237 95.5408 22.2605 95.5041 22.3341C95.4673 22.3709 95.4305 22.3709 95.3937 22.3709C93.7379 22.4812 92.2294 22.518 90.9048 22.518C89.5066 22.518 87.8876 22.4812 86.0479 22.4076C85.9743 22.4076 85.9375 22.3341 85.9375 22.1869L90.868 9.1249L95.5776 22.0765V22.1869H95.5408ZM134.653 31.3855C134.101 32.7469 133.292 33.8507 132.225 34.7705C131.121 35.6904 129.87 36.1319 128.472 36.1319C127.331 36.1319 126.191 35.8008 125.123 35.1017C124.056 34.4394 123.505 33.4459 123.505 32.2317V19.3905C123.505 18.9858 123.983 18.5442 124.976 18.0291C125.97 17.5508 126.963 17.2932 127.993 17.2932C130.128 17.2932 131.894 18.1763 133.329 19.9056C134.764 21.635 135.463 24.0634 135.463 27.1173C135.463 28.6259 135.168 30.0241 134.653 31.3855ZM149.04 22.2605H140.32C140.283 22.2605 140.32 22.0397 140.43 21.635C140.54 21.1934 140.724 20.6783 140.982 20.0896C141.239 19.4641 141.571 18.8754 141.975 18.2499C142.38 17.6244 142.932 17.1093 143.631 16.7045C144.33 16.263 145.103 16.079 145.912 16.079C146.685 16.079 147.347 16.263 147.973 16.6677C148.598 17.0725 149.04 17.5508 149.371 18.1027C149.702 18.6546 149.923 19.2433 150.107 19.7585C150.254 20.3104 150.328 20.7519 150.328 21.0831C150.217 21.8557 149.812 22.2605 149.04 22.2605Z" fill="white"/>
<path d="M133.439 41.2827C133.697 41.2827 133.954 41.2827 134.285 41.246C134.616 41.246 134.874 41.2092 135.132 41.2092C135.389 41.2092 135.647 41.246 135.941 41.3195C136.235 41.3931 136.456 41.5035 136.714 41.6875C136.971 41.8347 137.155 42.0922 137.339 42.3866C137.486 42.6809 137.56 43.0121 137.56 43.4168C137.56 43.6376 137.523 43.8951 137.413 44.1527C137.302 44.4103 137.155 44.6678 136.971 44.9254C136.787 45.1829 136.53 45.3669 136.199 45.5509C135.867 45.6981 135.499 45.8084 135.132 45.8084C134.69 45.8084 134.396 45.6981 134.212 45.4773C134.175 45.4037 134.138 45.3301 134.175 45.2197C134.175 45.1829 134.212 45.1829 134.212 45.1829C134.469 45.2565 134.727 45.3301 135.021 45.3301C135.426 45.3301 135.757 45.1462 136.051 44.815C136.346 44.4839 136.493 44.0791 136.493 43.6008C136.493 43.0489 136.383 42.5705 136.125 42.2394C135.867 41.9083 135.499 41.7243 134.984 41.7243C134.616 41.7243 134.359 41.7611 134.138 41.7979C134.101 41.7979 134.064 41.8347 134.064 41.8715C134.064 41.9083 134.028 42.0554 134.028 42.2394C134.028 42.4234 134.028 42.7177 134.028 43.0857V47.3538C134.028 47.9057 134.064 48.2369 134.138 48.3841C134.175 48.4944 134.322 48.568 134.58 48.6416C134.837 48.7152 134.984 48.752 135.095 48.752C135.132 48.752 135.132 48.8256 135.132 48.936C135.132 49.0096 135.132 49.0831 135.095 49.1199C134.285 49.0831 133.77 49.0464 133.549 49.0464L132.078 49.1199C132.041 49.0831 132.041 49.0096 132.041 48.8992C132.041 48.7888 132.041 48.752 132.078 48.752C132.188 48.752 132.335 48.7152 132.556 48.6784C132.74 48.6416 132.887 48.568 132.924 48.4944C132.997 48.3841 132.997 48.0161 132.997 47.3538V42.8281C132.997 42.3498 132.961 42.0186 132.924 41.7979C132.887 41.7243 132.777 41.6875 132.556 41.6139C132.335 41.5403 132.188 41.5403 132.078 41.5403C132.041 41.5403 132.041 41.5035 132.041 41.3931C132.041 41.2827 132.041 41.2092 132.078 41.1724L133.439 41.2827Z" fill="white"/>
<path d="M141.644 41.2461C141.902 41.2461 142.196 41.2829 142.454 41.3565C142.748 41.4301 143.006 41.5404 143.263 41.7244C143.521 41.9084 143.741 42.1292 143.925 42.4235C144.109 42.7179 144.183 43.049 144.183 43.4538C144.183 43.7849 144.073 44.1528 143.815 44.5208C143.557 44.8887 143.226 45.1831 142.785 45.3671C142.711 45.4039 142.674 45.4406 142.711 45.4774C143.116 46.3237 143.557 47.0228 144.073 47.5747C144.845 48.421 145.471 48.8257 145.949 48.8257C145.986 48.8625 145.986 48.9361 145.986 49.0097C145.986 49.0833 145.986 49.1569 145.949 49.1937C145.875 49.2305 145.765 49.2305 145.618 49.2305C144.514 49.2305 143.521 48.6417 142.711 47.5011C142.601 47.3172 142.454 47.1332 142.27 46.8756C142.122 46.6181 141.975 46.4709 141.902 46.3605C141.828 46.2501 141.755 46.1397 141.644 45.9926C141.534 45.8822 141.46 45.7718 141.387 45.6982C141.313 45.6246 141.239 45.5878 141.129 45.551C141.055 45.5142 140.908 45.5142 140.687 45.5142C140.614 45.5142 140.577 45.5142 140.54 45.5142C140.504 45.5142 140.467 45.551 140.43 45.551C140.393 45.5878 140.393 45.6246 140.393 45.6982V47.4643C140.393 48.0162 140.43 48.3474 140.504 48.4946C140.54 48.605 140.687 48.6785 140.945 48.7521C141.203 48.8257 141.35 48.8625 141.46 48.8625C141.497 48.8625 141.497 48.9361 141.497 49.0465C141.497 49.1201 141.497 49.1937 141.46 49.2305C140.651 49.1937 140.136 49.1569 139.915 49.1569L138.443 49.2305C138.406 49.1937 138.406 49.1201 138.406 49.0097C138.406 48.8993 138.406 48.8625 138.443 48.8625C138.553 48.8625 138.701 48.8257 138.921 48.7889C139.105 48.7521 139.253 48.6785 139.289 48.605C139.363 48.4946 139.363 48.1266 139.363 47.4643V42.9386C139.363 42.4603 139.326 42.1292 139.289 41.9084C139.253 41.8348 139.142 41.798 138.921 41.7244C138.701 41.6508 138.553 41.6508 138.443 41.6508C138.406 41.6508 138.406 41.614 138.406 41.5037C138.406 41.3933 138.406 41.3197 138.443 41.2829L139.878 41.3197C140.099 41.3197 140.393 41.3197 140.724 41.2829C141.129 41.2461 141.387 41.2461 141.644 41.2461ZM141.423 41.7612C141.055 41.7612 140.798 41.798 140.577 41.8348C140.54 41.8348 140.504 41.8716 140.504 41.9084C140.467 41.9452 140.467 42.0924 140.467 42.2763C140.467 42.4603 140.467 42.7547 140.467 43.1594V44.5944C140.467 44.8151 140.798 44.9255 141.497 44.9255H141.791C142.086 44.9255 142.343 44.7783 142.674 44.5208C142.969 44.2264 143.116 43.8585 143.116 43.417C143.116 42.3131 142.564 41.7612 141.423 41.7612Z" fill="white"/>
<path d="M147.531 48.0531C146.795 47.2804 146.427 46.3237 146.427 45.1831C146.427 44.0793 146.795 43.1226 147.531 42.3132C148.267 41.5037 149.187 41.1357 150.217 41.1357C151.284 41.1357 152.167 41.5405 152.94 42.3132C153.676 43.1226 154.08 44.0793 154.08 45.1831C154.08 46.287 153.713 47.2436 152.94 48.0531C152.204 48.8258 151.284 49.2305 150.217 49.2305C149.187 49.2673 148.304 48.8625 147.531 48.0531ZM150.07 41.6509C149.297 41.6509 148.708 41.982 148.267 42.6443C147.825 43.3066 147.605 44.0793 147.605 44.9256C147.605 45.5511 147.715 46.1766 147.899 46.7285C148.12 47.2804 148.414 47.7587 148.856 48.1635C149.297 48.5314 149.812 48.7154 150.401 48.7154C150.916 48.7154 151.358 48.5314 151.726 48.237C152.094 47.9059 152.388 47.5012 152.572 46.986C152.756 46.5077 152.829 45.9558 152.829 45.4039C152.829 44.7784 152.719 44.1529 152.535 43.601C152.314 43.049 152.02 42.5707 151.578 42.2028C151.174 41.8348 150.659 41.6509 150.07 41.6509Z" fill="white"/>
<path d="M156.583 41.2827C156.84 41.2827 157.098 41.2827 157.429 41.246C157.76 41.246 158.017 41.2092 158.275 41.2092C158.533 41.2092 158.79 41.246 159.085 41.3195C159.379 41.3931 159.6 41.5035 159.857 41.6875C160.115 41.8347 160.299 42.0922 160.483 42.3866C160.63 42.6809 160.703 43.0121 160.703 43.4168C160.703 43.6376 160.667 43.8951 160.556 44.1527C160.446 44.4103 160.299 44.6678 160.115 44.9254C159.931 45.1829 159.673 45.3669 159.342 45.5509C159.011 45.6981 158.643 45.8084 158.275 45.8084C157.834 45.8084 157.539 45.6981 157.355 45.4773C157.318 45.4037 157.282 45.3301 157.318 45.2197C157.318 45.1829 157.355 45.1829 157.355 45.1829C157.613 45.2565 157.87 45.3301 158.165 45.3301C158.569 45.3301 158.901 45.1462 159.195 44.815C159.489 44.4839 159.636 44.0791 159.636 43.6008C159.636 43.0489 159.526 42.5705 159.268 42.2394C159.011 41.9083 158.643 41.7243 158.128 41.7243C157.76 41.7243 157.502 41.7611 157.282 41.7979C157.245 41.7979 157.208 41.8347 157.208 41.8715C157.208 41.9083 157.171 42.0554 157.171 42.2394C157.171 42.4234 157.171 42.7177 157.171 43.0857V47.3538C157.171 47.9057 157.208 48.2369 157.282 48.3841C157.318 48.4944 157.466 48.568 157.723 48.6416C157.981 48.7152 158.128 48.752 158.238 48.752C158.275 48.752 158.275 48.8256 158.275 48.936C158.275 49.0096 158.275 49.0831 158.238 49.1199C157.429 49.0831 156.914 49.0464 156.693 49.0464L155.221 49.1199C155.184 49.0831 155.184 49.0096 155.184 48.8992C155.184 48.7888 155.184 48.752 155.221 48.752C155.331 48.752 155.479 48.7152 155.699 48.6784C155.883 48.6416 156.031 48.568 156.067 48.4944C156.141 48.3841 156.141 48.0161 156.141 47.3538V42.8281C156.141 42.3498 156.104 42.0186 156.067 41.7979C156.031 41.7243 155.92 41.6875 155.699 41.6139C155.479 41.5403 155.331 41.5403 155.221 41.5403C155.184 41.5403 155.184 41.5035 155.184 41.3931C155.184 41.2827 155.184 41.2092 155.221 41.1724L156.583 41.2827Z" fill="white"/>
<path d="M162.948 41.2827C163.316 41.2827 163.941 41.2827 164.824 41.246C165.707 41.2092 166.37 41.2092 166.811 41.2092C166.848 41.4299 166.922 41.7611 166.995 42.129C167.069 42.497 167.142 42.7545 167.142 42.8281C167.106 42.8649 167.032 42.9017 166.922 42.9017C166.811 42.9017 166.775 42.8649 166.738 42.8281C166.627 42.3866 166.443 42.0922 166.223 41.9818C166.002 41.8715 165.707 41.7979 165.34 41.7979H164.53C163.831 41.7979 163.5 41.8347 163.463 41.945C163.426 42.129 163.389 42.4602 163.389 42.9385V44.8518C163.389 44.8886 163.573 44.9254 163.905 44.9254H164.53C164.751 44.9254 164.898 44.9254 165.008 44.9254C165.119 44.9254 165.229 44.9254 165.34 44.8886C165.45 44.8518 165.524 44.8518 165.56 44.815C165.597 44.815 165.634 44.7414 165.671 44.6678C165.707 44.5574 165.744 44.5206 165.744 44.4471C165.744 44.4103 165.781 44.2999 165.818 44.1159C165.818 44.0423 165.891 44.0423 166.002 44.0423C166.112 44.0423 166.149 44.0791 166.223 44.1159V46.3604C166.186 46.3972 166.112 46.3972 166.039 46.3972C165.928 46.3972 165.855 46.3604 165.855 46.2868C165.781 46.066 165.744 45.9188 165.707 45.8084C165.671 45.6981 165.634 45.6245 165.634 45.6245C165.597 45.5877 165.597 45.5877 165.524 45.5509C165.413 45.4773 165.008 45.4405 164.273 45.4405C163.684 45.4405 163.426 45.4773 163.426 45.5509V47.3906C163.426 47.9057 163.463 48.2737 163.537 48.4944C163.573 48.568 163.831 48.6048 164.346 48.6048H164.935C165.671 48.6048 166.186 48.5312 166.443 48.3841C166.554 48.3105 166.701 48.1633 166.848 47.9425C166.995 47.7218 167.106 47.4642 167.216 47.1698C167.216 47.133 167.29 47.0963 167.4 47.0963C167.547 47.0963 167.658 47.133 167.694 47.1698C167.658 47.2802 167.584 47.4274 167.51 47.6482C167.437 47.8689 167.363 48.0529 167.326 48.2001C167.29 48.3473 167.216 48.4944 167.179 48.6784C167.106 48.8624 167.106 49.0096 167.069 49.1199C166.664 49.1199 166.002 49.1199 165.156 49.0831C164.273 49.0831 163.573 49.0464 162.985 49.0464L161.55 49.0831C161.513 49.0463 161.513 49.0096 161.513 48.8992C161.513 48.7888 161.513 48.752 161.55 48.752C161.66 48.752 161.807 48.7152 162.028 48.6784C162.249 48.6048 162.359 48.568 162.396 48.4944C162.47 48.3841 162.47 48.0161 162.47 47.3538V42.8281C162.47 42.3498 162.433 42.0186 162.396 41.7979C162.359 41.7243 162.249 41.6875 162.028 41.6139C161.807 41.5403 161.66 41.5403 161.55 41.5403C161.513 41.5403 161.513 41.5035 161.513 41.3931C161.513 41.2827 161.513 41.2092 161.55 41.1724C161.954 41.2827 162.433 41.2827 162.948 41.2827Z" fill="white"/>
<path d="M171.595 41.2461C171.852 41.2461 172.147 41.2829 172.404 41.3565C172.662 41.4301 172.956 41.5404 173.214 41.7244C173.471 41.8716 173.692 42.1292 173.876 42.4235C174.06 42.7179 174.133 43.049 174.133 43.4538C174.133 43.7849 174.023 44.1528 173.765 44.5208C173.508 44.8887 173.177 45.1831 172.735 45.3671C172.662 45.4039 172.625 45.4406 172.662 45.4774C173.066 46.3237 173.508 47.0228 174.023 47.5747C174.796 48.421 175.421 48.8257 175.9 48.8257C175.936 48.8625 175.936 48.9361 175.936 49.0097C175.936 49.0833 175.936 49.1569 175.9 49.1937C175.826 49.2305 175.716 49.2305 175.568 49.2305C174.465 49.2305 173.471 48.6417 172.662 47.5011C172.551 47.3172 172.404 47.1332 172.22 46.8756C172.073 46.6181 171.926 46.4709 171.852 46.3605C171.779 46.2501 171.705 46.1397 171.595 45.9926C171.484 45.8822 171.411 45.7718 171.337 45.6982C171.263 45.6246 171.19 45.5878 171.079 45.551C171.006 45.5142 170.859 45.5142 170.638 45.5142C170.564 45.5142 170.528 45.5142 170.491 45.5142C170.454 45.5142 170.417 45.551 170.38 45.551C170.344 45.5878 170.344 45.6246 170.344 45.6982V47.4643C170.344 48.0162 170.38 48.3474 170.454 48.4946C170.491 48.605 170.638 48.6785 170.895 48.7521C171.153 48.8257 171.3 48.8625 171.411 48.8625C171.447 48.8625 171.447 48.9361 171.447 49.0465C171.447 49.1201 171.447 49.1937 171.411 49.2305C170.601 49.1937 170.086 49.1569 169.865 49.1569L168.393 49.2305C168.357 49.1937 168.357 49.1201 168.357 49.0097C168.357 48.8993 168.357 48.8625 168.393 48.8625C168.504 48.8625 168.651 48.8257 168.872 48.7889C169.056 48.7521 169.203 48.6785 169.24 48.605C169.313 48.4946 169.313 48.1266 169.313 47.4643V42.9386C169.313 42.4603 169.277 42.1292 169.24 41.9084C169.203 41.8348 169.093 41.798 168.872 41.7244C168.651 41.6508 168.504 41.6508 168.393 41.6508C168.357 41.6508 168.357 41.614 168.357 41.5037C168.357 41.3933 168.357 41.3197 168.393 41.2829L169.828 41.3197C170.049 41.3197 170.344 41.3197 170.675 41.2829C171.079 41.2461 171.374 41.2461 171.595 41.2461ZM171.411 41.7612C171.043 41.7612 170.785 41.798 170.564 41.8348C170.528 41.8348 170.491 41.8716 170.491 41.9084C170.454 41.9452 170.454 42.0924 170.454 42.2763C170.454 42.4603 170.454 42.7547 170.454 43.1594V44.5944C170.454 44.8151 170.785 44.9255 171.484 44.9255H171.779C172.073 44.9255 172.33 44.7783 172.662 44.5208C172.956 44.2264 173.103 43.8585 173.103 43.417C173.066 42.3131 172.514 41.7612 171.411 41.7612Z" fill="white"/>
<path d="M178.549 41.2462C179.101 41.2462 179.542 41.2829 179.91 41.2829C180.278 41.2829 180.72 41.283 181.272 41.2462C181.823 41.2462 182.265 41.2094 182.559 41.2094C182.743 41.2094 183.038 41.1726 183.369 41.0622L183.59 42.7915C183.516 42.8651 183.442 42.8651 183.295 42.8651C183.222 42.8651 183.185 42.8283 183.185 42.7915C183.074 42.35 182.927 42.0556 182.78 41.9085C182.633 41.7613 182.302 41.7245 181.86 41.7245C181.014 41.7245 180.572 41.7981 180.536 41.9085C180.462 42.166 180.425 42.5708 180.425 43.1227V47.4276C180.425 47.9059 180.462 48.2739 180.536 48.5314C180.536 48.605 180.646 48.6418 180.867 48.6786C181.088 48.7154 181.235 48.7522 181.308 48.7522C181.345 48.7522 181.345 48.8258 181.345 48.9362C181.345 49.0098 181.345 49.0466 181.308 49.1201C180.499 49.0833 180.057 49.0466 179.91 49.0466C179.873 49.0466 179.395 49.0833 178.475 49.1201C178.438 49.0833 178.438 49.0466 178.438 48.9362C178.438 48.8258 178.438 48.7522 178.475 48.7522C178.586 48.7522 178.733 48.7154 178.953 48.6786C179.174 48.6418 179.285 48.5682 179.285 48.4946C179.358 48.2739 179.358 47.9427 179.358 47.4276V43.0859C179.358 42.3868 179.321 41.982 179.248 41.8717C179.174 41.7613 178.77 41.6877 177.96 41.6877C177.519 41.6877 177.187 41.7613 177.04 41.8717C176.893 42.0188 176.746 42.2764 176.635 42.7547C176.635 42.7915 176.599 42.8283 176.525 42.8283C176.378 42.8283 176.304 42.7915 176.231 42.7547L176.451 41.0254C176.819 41.099 177.077 41.1726 177.261 41.1726C177.555 41.2462 177.997 41.2462 178.549 41.2462Z" fill="white"/>
<path d="M185.282 42.8652C185.282 42.3869 185.245 42.0189 185.209 41.7982C185.172 41.7246 185.061 41.6878 184.877 41.6142C184.657 41.5774 184.509 41.5406 184.399 41.5406C184.362 41.5406 184.362 41.5038 184.362 41.3934C184.362 41.2831 184.362 41.2463 184.399 41.2095C185.319 41.2463 185.797 41.2831 185.834 41.2831C185.944 41.2831 186.423 41.2463 187.232 41.2095C187.232 41.2463 187.269 41.3199 187.269 41.3934C187.269 41.5038 187.269 41.5774 187.232 41.5774C187.159 41.5774 187.011 41.6142 186.791 41.651C186.57 41.7246 186.46 41.7614 186.46 41.835C186.386 42.1293 186.349 42.4973 186.349 42.9388V47.5013C186.349 47.9796 186.386 48.3476 186.46 48.6051C186.46 48.6787 186.57 48.7155 186.791 48.7523C187.011 48.7891 187.159 48.8259 187.232 48.8259C187.269 48.8259 187.269 48.8995 187.269 49.0099C187.269 49.0835 187.269 49.1203 187.232 49.1938C186.423 49.157 185.981 49.1203 185.834 49.1203C185.797 49.1203 185.319 49.157 184.399 49.1938C184.362 49.157 184.362 49.1203 184.362 49.0099C184.362 48.8995 184.362 48.8259 184.399 48.8259C184.509 48.8259 184.657 48.7891 184.877 48.7523C185.098 48.7155 185.209 48.6419 185.209 48.5683C185.282 48.3476 185.282 48.0164 185.282 47.5013V42.8652Z" fill="white"/>
<path d="M189.513 41.2827C189.881 41.2827 190.507 41.2827 191.39 41.246C192.273 41.2092 192.935 41.2092 193.377 41.2092C193.414 41.4299 193.487 41.7611 193.561 42.129C193.634 42.497 193.708 42.7545 193.708 42.8281C193.671 42.8649 193.598 42.9017 193.487 42.9017C193.377 42.9017 193.34 42.8649 193.303 42.8281C193.193 42.3866 193.009 42.0922 192.788 41.9818C192.567 41.8715 192.273 41.7979 191.905 41.7979H191.096C190.396 41.7979 190.065 41.8347 190.028 41.945C189.992 42.129 189.955 42.4602 189.955 42.9385V44.8518C189.955 44.8886 190.139 44.9254 190.47 44.9254H191.096C191.316 44.9254 191.463 44.9254 191.574 44.9254C191.684 44.9254 191.795 44.9254 191.905 44.8886C192.015 44.8518 192.089 44.8518 192.126 44.815C192.163 44.815 192.199 44.7414 192.236 44.6678C192.273 44.5574 192.31 44.5206 192.31 44.4471C192.31 44.3735 192.347 44.2999 192.383 44.1159C192.383 44.0423 192.457 44.0423 192.567 44.0423C192.678 44.0423 192.714 44.0791 192.788 44.1159V46.3604C192.751 46.3972 192.678 46.3972 192.604 46.3972C192.494 46.3972 192.42 46.3604 192.42 46.2868C192.347 46.066 192.31 45.9188 192.273 45.8084C192.236 45.6981 192.199 45.6245 192.199 45.6245C192.163 45.5877 192.163 45.5877 192.089 45.5509C191.979 45.4773 191.574 45.4405 190.838 45.4405C190.249 45.4405 189.992 45.4773 189.992 45.5509V47.3906C189.992 47.9057 190.028 48.2737 190.102 48.4944C190.139 48.568 190.396 48.6048 190.912 48.6048H191.5C192.236 48.6048 192.751 48.5312 193.009 48.3841C193.119 48.3105 193.266 48.1633 193.414 47.9425C193.561 47.7218 193.671 47.4642 193.781 47.1698C193.781 47.133 193.855 47.0963 193.965 47.0963C194.113 47.0963 194.223 47.133 194.26 47.1698C194.223 47.2802 194.149 47.4274 194.076 47.6482C194.002 47.8689 193.929 48.0529 193.892 48.2001C193.855 48.3473 193.781 48.4944 193.745 48.6784C193.671 48.8624 193.671 49.0096 193.634 49.1199C193.23 49.1199 192.567 49.1199 191.721 49.0831C190.838 49.0831 190.139 49.0464 189.55 49.0464L188.115 49.0831C188.078 49.0463 188.078 49.0096 188.078 48.8992C188.078 48.7888 188.078 48.752 188.115 48.752C188.226 48.752 188.373 48.7152 188.593 48.6784C188.814 48.6048 188.925 48.568 188.961 48.4944C189.035 48.3841 189.035 48.0161 189.035 47.3538V42.8281C189.035 42.3498 188.998 42.0186 188.961 41.7979C188.925 41.7243 188.814 41.6875 188.593 41.6139C188.373 41.5403 188.226 41.5403 188.115 41.5403C188.078 41.5403 188.078 41.5035 188.078 41.3931C188.078 41.2827 188.078 41.2092 188.115 41.1724C188.483 41.2827 188.961 41.2827 189.513 41.2827Z" fill="white"/>
<path d="M195.253 43.2696C195.253 42.6441 195.474 42.1658 195.952 41.7611C196.431 41.3563 196.983 41.1724 197.608 41.1724C197.792 41.1724 197.939 41.1724 198.123 41.2092C198.271 41.246 198.418 41.246 198.491 41.2827C198.602 41.3195 198.749 41.3563 198.933 41.3931C199.117 41.4299 199.301 41.5035 199.411 41.5035C199.522 41.9083 199.558 42.497 199.558 43.2328C199.558 43.3064 199.522 43.3064 199.448 43.3064C199.264 43.3064 199.154 43.2696 199.154 43.1961C199.117 42.8281 198.933 42.497 198.638 42.1658C198.344 41.8347 197.976 41.6875 197.535 41.6875C197.056 41.6875 196.725 41.7979 196.541 42.0554C196.357 42.313 196.247 42.6073 196.247 42.9385C196.247 43.0857 196.284 43.2328 196.32 43.38C196.394 43.5272 196.431 43.6376 196.504 43.7112C196.578 43.7848 196.652 43.8951 196.799 44.0423C196.946 44.1527 197.056 44.2631 197.13 44.2999C197.204 44.3367 197.351 44.4471 197.535 44.5574C197.755 44.6678 197.866 44.7782 197.939 44.815C197.976 44.8518 198.123 44.9254 198.344 45.0726C198.565 45.2197 198.749 45.3301 198.822 45.3669C198.896 45.4405 199.043 45.5509 199.227 45.6981C199.411 45.8452 199.558 45.9924 199.632 46.1028C199.706 46.2132 199.779 46.3604 199.889 46.5443C199.963 46.7283 200 46.9123 200 47.0963C200 47.7218 199.742 48.2737 199.264 48.6784C198.749 49.0831 198.197 49.3039 197.498 49.3039C197.314 49.3039 197.093 49.3039 196.872 49.2671C196.652 49.2303 196.468 49.1935 196.32 49.1935C196.173 49.1935 195.989 49.1199 195.769 49.0831C195.548 49.0463 195.401 49.0096 195.29 48.9728C195.106 47.9793 194.996 47.3538 194.996 47.0595C194.996 47.0227 195.069 46.9859 195.18 46.9859C195.327 46.9859 195.437 47.0227 195.474 47.0963C195.732 48.2369 196.394 48.8256 197.461 48.8256C197.866 48.8256 198.197 48.7152 198.491 48.4576C198.786 48.2001 198.896 47.8689 198.896 47.4274C198.896 47.2802 198.859 47.133 198.822 46.9859C198.786 46.8387 198.712 46.7283 198.675 46.6547C198.638 46.5811 198.528 46.4707 198.418 46.3604C198.271 46.25 198.197 46.1764 198.123 46.1396C198.05 46.1028 197.903 46.0292 197.719 45.9188C197.535 45.8085 197.387 45.7349 197.314 45.6981C197.093 45.5509 196.909 45.4773 196.836 45.4037C196.762 45.3301 196.578 45.2565 196.394 45.1094C196.173 44.9622 196.026 44.8518 195.916 44.7414C195.805 44.631 195.695 44.4839 195.585 44.3367C195.474 44.1895 195.364 44.0055 195.327 43.8584C195.253 43.6376 195.253 43.4536 195.253 43.2696Z" fill="white"/>
</svg>
