<svg width="31" height="37" viewBox="0 0 31 37" fill="none" xmlns="http://www.w3.org/2000/svg">
<path d="M15.1494 36.9121C17.2439 36.9121 18.939 35.217 18.939 33.1226H11.3687C11.3598 35.217 13.0549 36.9121 15.1494 36.9121Z" fill="white"/>
<path d="M26.5094 25.5519V16.0824C26.5094 10.2605 23.412 5.40589 17.9895 4.11903V2.90316C17.9895 1.30568 16.6848 -0.04331 15.0874 0.00106457C13.5431 0.0276893 12.3095 1.27905 12.3095 2.83216V4.11903C6.88693 5.40589 3.78959 10.2605 3.78959 16.0824V25.5519L0.372747 28.9688C0.133124 29.2084 0 29.5279 0 29.8563V29.9717C0 30.6639 0.55912 31.2319 1.26024 31.2319H29.0387C29.731 31.2319 30.299 30.6728 30.299 29.9717V29.8563C30.299 29.519 30.1658 29.1995 29.9262 28.9688L26.5094 25.5519Z" fill="white"/>
</svg>
